<svg id="Camada_3" data-name="Camada 3" xmlns="http://www.w3.org/2000/svg" viewBox="0 0 115.5 41"><defs><style>.cls-1{fill:#bb44f2;}</style></defs><title>carLilas</title><path class="cls-1" d="M1147.5,590V606.5h13.7a5.71,5.71,0,0,1-.2-1.5,6,6,0,0,1,12,0,5.71,5.71,0,0,1-.2,1.5h3.7v-29H1160Zm20.5-10v9h-16l9-9Z" transform="translate(-1147.5 -571)"/><path class="cls-1" d="M1167,600a4.95,4.95,0,1,0,5,5A5,5,0,0,0,1167,600Z" transform="translate(-1147.5 -571)"/><path class="cls-1" d="M1178,571v36h55a6,6,0,0,1,11.53-2.34.5.5,0,0,0,.94,0A6,6,0,0,1,1257,607h6V571Z" transform="translate(-1147.5 -571)"/><circle class="cls-1" cx="103.5" cy="36" r="5"/><circle class="cls-1" cx="91.5" cy="36" r="5"/></svg>