<svg id="Camada_3" data-name="Camada 3" xmlns="http://www.w3.org/2000/svg" viewBox="0 0 115.5 41"><defs><style>.cls-1{fill:#34a853;}</style></defs><title>carVerde</title><path class="cls-1" d="M1088.5,771V787.5h13.7a5.71,5.71,0,0,1-.2-1.5,6,6,0,0,1,12,0,5.71,5.71,0,0,1-.2,1.5h3.7v-29H1101Zm20.5-10v9h-16l9-9Z" transform="translate(-1088.5 -752)"/><path class="cls-1" d="M1108,781a4.95,4.95,0,1,0,5,5A5,5,0,0,0,1108,781Z" transform="translate(-1088.5 -752)"/><path class="cls-1" d="M1119,752v36h55a6,6,0,0,1,11.53-2.34.5.5,0,0,0,.94,0A6,6,0,0,1,1198,788h6V752Z" transform="translate(-1088.5 -752)"/><circle class="cls-1" cx="103.5" cy="36" r="5"/><circle class="cls-1" cx="91.5" cy="36" r="5"/></svg>