<svg id="Camada_3" data-name="Camada 3" xmlns="http://www.w3.org/2000/svg" viewBox="0 0 115.5 41"><defs><style>.cls-1{fill:#ea4335;}</style></defs><title>carVermelho</title><path class="cls-1" d="M1110.5,680V696.5h13.7a5.71,5.71,0,0,1-.2-1.5,6,6,0,0,1,12,0,5.71,5.71,0,0,1-.2,1.5h3.7v-29H1123Zm20.5-10v9h-16l9-9Z" transform="translate(-1110.5 -661)"/><path class="cls-1" d="M1130,690a4.95,4.95,0,1,0,5,5A5,5,0,0,0,1130,690Z" transform="translate(-1110.5 -661)"/><path class="cls-1" d="M1141,661v36h55a6,6,0,0,1,11.53-2.34.5.5,0,0,0,.94,0A6,6,0,0,1,1220,697h6V661Z" transform="translate(-1110.5 -661)"/><circle class="cls-1" cx="103.5" cy="36" r="5"/><circle class="cls-1" cx="91.5" cy="36" r="5"/></svg>